<mxfile host="app.diagrams.net" modified="2023-09-13T09:38:02.891Z" agent="Mozilla/5.0 (Windows NT 10.0; Win64; x64) AppleWebKit/537.36 (KHTML, like Gecko) Chrome/116.0.0.0 Safari/537.36" etag="OVmAAH8TQwN9v0wX_LI6" version="21.7.4" type="device">
  <diagram name="Page-1" id="HzqAkh7pxGmJO-GLYKnU">
    <mxGraphModel dx="2269" dy="1211" grid="0" gridSize="10" guides="1" tooltips="1" connect="1" arrows="1" fold="1" page="1" pageScale="1" pageWidth="850" pageHeight="1100" math="0" shadow="0">
      <root>
        <mxCell id="0" />
        <mxCell id="1" parent="0" />
      </root>
    </mxGraphModel>
  </diagram>
</mxfile>
